<svg xmlns="http://www.w3.org/2000/svg" viewBox="0 0 395.55 395.56"><defs><style>.cls-1{fill:#fff;}</style></defs><title>logo</title><g id="Layer_2" data-name="Layer 2"><g id="Layer_1-2" data-name="Layer 1"><path class="cls-1" d="M284.14,19.81A196.93,196.93,0,0,0,197.77,0C88.54,0,0,88.55,0,197.78S88.54,395.56,197.77,395.56,395.55,307,395.55,197.78A197.32,197.32,0,0,0,324.53,46V73.13A177.78,177.78,0,0,1,72.07,323.49,177.78,177.78,0,0,1,197.77,20,179.24,179.24,0,0,1,243.7,26V236.16c0,48.21-16.85,67.41-50.71,67.41-22.72,0-40.64-10.28-54.94-35.48l-28.6,20.37c18.33,33.11,46.93,50.62,87.2,50.62,62.15,0,87.44-44.28,87.44-99.21V42.27l.05-4"/></g></g></svg>